<svg width="143" height="107" viewBox="0 0 143 107" fill="none" xmlns="http://www.w3.org/2000/svg">
<path d="M10.1411 47.3556C11.7065 51.5894 13.2458 56.0304 14.7624 60.3781C15.9467 63.7735 17.2351 67.2664 18.8865 70.4693C19.3429 71.3545 19.9764 72.0664 20.2181 73.0393" stroke="#AEE67F" stroke-width="3" stroke-linecap="round"/>
<path d="M6.75363 57.9008C9.89516 57.1204 13.1052 54.3428 15.8253 52.6694C20.3344 49.8952 25.493 45.8522 30.702 44.5582" stroke="#AEE67F" stroke-width="3" stroke-linecap="round"/>
<path d="M29.291 42.5983C30.4466 47.2503 32.7652 51.395 34.5948 55.7851C35.5072 57.9742 36.255 60.3018 36.9957 62.5563C38.0738 65.8378 36.6054 62.0059 36.2369 60.8451C36.0696 60.3182 33.722 54.4395 35.0693 53.6648C36.1214 53.06 37.5906 53.2645 38.5309 54.1655C41.408 56.9219 43.9201 60.0359 46.7298 62.885C48.4915 64.6714 48.7177 62.2756 49.4104 60.3451C49.7514 59.3949 52.2175 48.5064 50.503 48.9323C49.546 49.1701 52.5832 52.3464 53.4948 52.5019C55.6613 52.8714 57.432 48.1641 57.0448 46.4344C56.969 46.096 55.5957 42.4464 54.945 44.3889C54.0248 47.1358 58.1332 51.3063 60.4201 52.1678C65.68 54.1492 67.9799 46.926 69.7685 43.6073C74.8709 34.1402 74.5559 23.9197 72.0667 13.8995C71.2722 10.7014 71.3935 16.2376 71.4759 16.9984C72.6195 27.5496 75.8015 38.5418 80.5479 48.0405C81.2232 49.3919 82.5383 51.0142 82.5775 52.5935C82.5812 52.7422 79.2098 51.154 78.9845 51.0473" stroke="#AEE67F" stroke-width="3" stroke-linecap="round"/>
<path d="M66.3822 41.2396C67.6006 38.5916 73.9623 36.497 76.4097 35.206C80.7766 32.9024 84.8409 29.8935 89.4601 28.1133" stroke="#AEE67F" stroke-width="3" stroke-linecap="round"/>
<path d="M96.3211 22.2501C91.2925 23.4993 87.3234 27.5672 93.1779 31.0918C95.0118 32.1958 98.9235 34.2351 98.8978 36.7561C98.8811 38.4031 92.9307 39.7274 91.5089 40.0806" stroke="#AEE67F" stroke-width="3" stroke-linecap="round"/>
<path d="M25.635 87.4045C26.9595 91.072 28.5031 94.658 29.8364 98.3236C30.2325 99.4124 30.534 101.479 31.5225 102.218C32.339 102.827 31.5361 96.8611 31.543 96.6161C31.6925 91.275 34.366 82.0021 39.1954 78.6449C39.8323 78.2022 44.0236 83.5366 44.431 84.943C44.445 84.9913 44.5574 86.2769 44.3087 85.8975C43.2093 84.22 43.0892 80.222 43.2324 78.2581C43.438 75.4392 44.5981 76.195 45.922 77.821C48.4577 80.9353 51.1801 84.9928 52.7339 88.7078C53.4286 90.3686 53.7987 89.8082 54.565 88.5352" stroke="#AEE67F" stroke-width="3" stroke-linecap="round"/>
<path d="M54.5816 77.4411C54.7598 77.9035 56.7739 78.1675 57.3235 78.3516C58.5784 78.7719 60.523 77.6757 61.0303 76.5323C61.9815 74.3884 57.682 74.4518 56.5682 74.2778C51.6925 73.5158 55.3341 79.7707 56.1836 80.9965C58.8522 84.8471 61.184 89.6635 66.5296 88.3355" stroke="#AEE67F" stroke-width="3" stroke-linecap="round"/>
<path d="M78 69.0677C80.1713 70.8808 84.0477 70.8313 86.6944 71.3785C94.5948 73.0118 102.075 74.6617 110.09 72.8072C115.18 71.6295 119.292 69.5442 123.594 66.701C124.958 65.7998 128.814 62.772 127.443 63.663" stroke="#AEE67F" stroke-width="3" stroke-linecap="round"/>
<path d="M118.137 61.6907C119.266 61.1075 131.747 54.5773 131.927 55.9333C132.822 62.6695 132.109 68.9624 132.033 75.6567" stroke="#AEE67F" stroke-width="3" stroke-linecap="round"/>
</svg>
